{"glyphs":{":":{"x_min":0,"x_max":278,"ha":278,"o":"m 220 516 l 322 516 l 300 410 l 198 410 z m 133 106 l 235 106 l 213 0 l 111 0 z"},"$":{"x_min":0,"x_max":556,"ha":556,"o":"m 437 112 q 460 141 468 180 q 481 241 443 272 q 421 291 363 308 l 309 51 q 393 55 437 112 z m 337 408 l 386 638 q 322 635 287 599 q 252 562 244 522 q 233 474 260 446 q 286 419 337 408 z m 403 710 l 417 775 l 463 775 l 449 711 q 545 705 586 654 q 627 604 612 521 l 527 521 q 531 558 521 584 q 500 634 433 636 l 383 399 q 489 367 524 339 q 580 293 561 204 q 534 74 438 19 q 384 -11 293 -21 l 273 -116 l 227 -116 l 247 -21 q 107 -12 76 80 q 59 129 76 213 l 163 213 q 152 146 163 115 q 182 60 262 53 l 319 319 q 217 339 177 386 q 137 433 154 516 q 170 590 237 650 q 304 709 403 710 z"},"?":{"x_min":0,"x_max":556,"ha":556,"o":"m 262 102 l 359 102 l 338 0 l 241 0 z m 454 727 q 550 727 596 672 q 642 617 624 531 q 613 479 585 447 q 557 415 479 353 q 422 307 402 276 q 381 244 368 183 l 281 183 q 296 252 322 295 q 348 338 416 393 l 462 432 q 484 448 498 466 q 524 498 532 532 q 542 580 521 615 q 500 650 434 650 q 353 650 308 590 q 284 556 268 493 l 181 493 q 203 598 276 662 q 350 727 454 727 z"},"<":{"x_min":0,"x_max":584,"ha":584,"o":"m 76 296 l 695 520 l 676 432 l 172 255 l 601 79 l 582 -9 l 59 215 z"},"'":{"x_min":0,"x_max":191,"ha":191,"o":"m 317 717 l 240 430 l 184 430 l 229 717 z"},"=":{"x_min":0,"x_max":584,"ha":584,"o":"m 639 401 l 622 319 l 113 319 l 130 401 z m 595 192 l 577 108 l 68 108 l 85 192 z"},"a":{"x_min":0,"x_max":556,"ha":556,"o":"m 237 57 q 284 57 332 79 q 413 114 430 195 l 445 266 q 427 256 400 249 q 373 242 348 239 l 293 232 q 244 226 217 212 q 172 189 161 139 q 153 101 176 79 q 199 57 237 57 z m 412 317 q 443 321 458 342 q 466 354 471 376 q 480 421 453 441 q 425 461 365 461 q 296 461 260 424 q 239 404 226 363 l 144 363 q 167 460 235 498 q 304 536 383 536 q 476 536 525 500 q 575 465 560 391 l 496 90 q 493 76 496 68 q 500 60 518 60 q 524 60 531 60 q 539 61 548 62 l 534 -2 q 512 -8 501 -10 q 490 -11 472 -11 q 426 -11 413 21 q 405 38 408 69 q 373 34 317 8 q 262 -18 201 -18 q 128 -18 92 27 q 55 71 69 137 q 84 210 138 250 q 192 290 268 299 z"},"L":{"x_min":0,"x_max":556,"ha":556,"o":"m 229 717 l 326 717 l 191 85 l 555 85 l 537 0 l 76 0 z"},"3":{"x_min":0,"x_max":556,"ha":556,"o":"m 69 215 l 161 215 q 152 147 166 116 q 188 61 277 61 q 347 61 396 98 q 446 135 459 194 q 474 266 436 295 q 398 324 319 324 q 311 324 302 323 q 292 323 283 323 l 300 400 q 313 399 322 398 q 332 398 342 398 q 392 398 427 414 q 488 441 503 511 q 514 563 483 592 q 452 620 402 620 q 314 620 269 562 q 243 529 228 470 l 141 470 q 158 548 201 603 q 275 700 410 700 q 517 700 566 653 q 614 605 595 515 q 581 450 538 410 q 511 385 474 371 q 526 356 548 313 q 570 270 557 207 q 535 107 456 44 q 376 -19 255 -19 q 131 -19 90 49 q 49 117 69 215 z"},";":{"x_min":0,"x_max":278,"ha":278,"o":"m 89 -102 q 125 -96 146 -57 q 157 -36 162 -12 q 163 -9 163 -8 q 163 -6 164 0 l 111 0 l 133 106 l 237 106 l 216 8 q 205 -44 183 -80 q 145 -137 79 -148 z m 220 516 l 324 516 l 302 410 l 198 410 z"},"J":{"x_min":0,"x_max":500,"ha":500,"o":"m 474 214 q 454 123 417 73 q 347 -19 208 -19 q 127 -19 79 25 q 31 68 55 180 l 66 231 l 157 231 l 146 180 q 134 122 154 92 q 174 62 229 62 q 307 62 342 116 q 363 148 383 239 l 484 717 l 581 717 z"},"V":{"x_min":0,"x_max":667,"ha":667,"o":"m 285 717 l 361 106 l 695 717 l 804 717 l 390 0 l 287 0 l 178 717 z"},"\"":{"x_min":0,"x_max":355,"ha":355,"o":"m 448 717 l 373 430 l 313 430 l 359 717 z m 281 717 l 206 430 l 146 430 l 192 717 z"},"7":{"x_min":0,"x_max":556,"ha":556,"o":"m 669 688 l 652 611 q 612 578 539 497 q 466 416 403 322 q 341 231 303 156 q 278 107 233 0 l 136 0 q 212 200 367 398 q 459 515 550 599 l 164 599 l 183 688 z"},"S":{"x_min":0,"x_max":667,"ha":667,"o":"m 188 231 q 179 170 196 132 q 229 61 352 61 q 406 61 455 77 q 548 107 564 185 q 577 244 545 269 q 514 293 438 311 l 346 333 q 255 354 221 380 q 163 425 182 515 q 202 611 282 673 q 362 735 485 735 q 598 735 665 681 q 732 626 707 507 l 615 507 q 620 564 603 595 q 570 651 464 651 q 378 651 333 615 q 288 579 277 531 q 266 479 305 454 q 330 438 427 415 l 522 392 q 592 375 625 347 q 683 296 663 201 q 637 82 540 30 q 442 -21 327 -21 q 193 -21 132 47 q 71 115 97 231 z"},"}":{"x_min":0,"x_max":334,"ha":334,"o":"m 233 343 q 223 382 239 456 l 250 510 q 264 575 256 608 q 241 667 164 674 l 175 730 q 299 720 330 652 q 350 608 331 521 l 314 441 q 303 386 312 356 q 331 301 416 292 l 404 236 q 316 227 273 170 q 250 139 239 86 l 217 -14 q 196 -113 131 -154 q 65 -195 -22 -204 l -10 -147 q 42 -140 85 -105 q 127 -70 141 -2 l 157 71 q 172 142 199 182 q 248 255 342 264 q 250 272 233 343 z"},"Z":{"x_min":0,"x_max":611,"ha":611,"o":"m 40 81 l 597 632 l 189 632 l 208 717 l 740 717 l 722 634 l 164 85 l 606 85 l 588 0 l 23 0 z"},"x":{"x_min":0,"x_max":500,"ha":500,"o":"m 125 523 l 239 523 l 320 339 l 481 523 l 587 521 l 357 268 l 485 0 l 373 0 l 284 196 l 117 0 l 5 0 l 246 268 z"},")":{"x_min":0,"x_max":333,"ha":333,"o":"m -8 -204 q 101 -53 138 17 q 194 122 225 263 q 254 404 240 521 q 231 593 188 729 l 247 729 q 297 609 307 581 q 316 553 325 503 q 335 442 332 383 q 330 323 318 268 q 287 124 217 10 q 173 -62 52 -204 z"},"&":{"x_min":0,"x_max":667,"ha":667,"o":"m 454 492 q 490 525 499 565 q 505 597 489 620 q 473 643 437 643 q 383 643 354 607 q 340 588 335 566 q 329 537 339 509 q 350 482 378 438 q 432 471 454 492 z m 446 141 l 326 339 q 248 293 221 269 q 181 232 170 179 q 158 122 193 91 q 229 61 276 61 q 330 61 375 85 q 419 110 446 141 z m 247 556 q 262 625 319 671 q 375 716 454 716 q 528 716 561 674 q 594 631 582 572 q 567 503 513 452 q 481 421 413 382 l 511 226 q 532 265 541 284 q 550 303 563 338 l 647 338 q 624 269 586 206 q 547 143 550 155 l 645 0 l 531 0 l 481 82 q 432 39 395 19 q 329 -17 253 -17 q 141 -17 103 44 q 65 104 82 180 q 99 261 160 316 q 197 349 290 399 q 256 451 248 487 q 240 522 247 556 z"},"_":{"x_min":0,"x_max":556,"ha":556,"o":"m -26 -125 l -16 -76 l 540 -76 l 529 -125 z"},"v":{"x_min":0,"x_max":500,"ha":500,"o":"m 218 523 l 268 97 l 504 523 l 600 523 l 292 0 l 198 0 l 116 523 z"},"O":{"x_min":0,"x_max":778,"ha":778,"o":"m 797 615 q 849 520 817 371 q 783 210 679 104 q 556 -21 379 -21 q 213 -21 142 88 q 80 194 114 355 q 145 500 239 604 q 360 737 542 737 q 732 737 797 615 z m 717 370 q 744 496 694 573 q 645 650 530 650 q 418 650 332 574 q 245 498 213 349 q 188 229 231 148 q 274 66 409 66 q 538 66 615 158 q 691 250 717 370 z"},"(":{"x_min":0,"x_max":333,"ha":333,"o":"m 451 729 q 342 580 304 510 q 247 403 217 263 q 187 121 202 4 q 211 -68 254 -204 l 195 -204 q 147 -93 136 -62 q 126 -31 117 21 q 105 94 112 176 q 116 218 124 257 q 154 401 224 514 q 268 586 390 729 z"},"C":{"x_min":0,"x_max":722,"ha":722,"o":"m 780 502 l 685 502 q 684 571 644 612 q 604 652 518 652 q 412 652 331 578 q 250 503 217 350 q 190 224 233 145 q 275 67 392 67 q 499 67 573 149 q 611 193 641 264 l 736 264 q 699 150 612 74 q 506 -19 361 -19 q 236 -19 167 57 q 77 157 122 366 q 155 525 261 626 q 375 737 535 737 q 671 737 731 665 q 791 593 780 502 z"},"W":{"x_min":0,"x_max":944,"ha":944,"o":"m 276 717 l 287 134 l 573 717 l 679 717 l 717 134 l 976 717 l 1083 717 l 742 0 l 640 0 l 600 595 l 308 0 l 206 0 l 170 717 z"},"A":{"x_min":0,"x_max":667,"ha":667,"o":"m 506 294 l 465 611 l 282 294 z m 437 717 l 547 717 l 655 0 l 548 0 l 521 215 l 237 215 l 114 0 l 15 0 z"},"f":{"x_min":0,"x_max":278,"ha":278,"o":"m 250 683 q 291 728 378 728 q 387 728 396 727 q 404 727 415 726 l 398 646 q 385 646 379 647 q 373 647 367 647 q 327 647 315 626 q 303 605 285 521 l 372 521 l 357 451 l 269 451 l 173 0 l 86 0 l 182 451 l 109 451 l 124 521 l 197 521 l 214 603 q 228 657 250 683 z"},"Q":{"x_min":0,"x_max":778,"ha":778,"o":"m 732 2 l 671 -57 l 578 27 q 534 5 484 -8 q 435 -21 379 -21 q 212 -21 141 88 q 80 195 114 355 q 145 500 239 604 q 360 737 542 737 q 732 737 797 615 q 849 520 817 371 q 802 302 771 238 q 725 140 650 79 z m 517 86 l 451 148 l 513 208 l 591 135 q 646 186 675 249 q 705 312 717 370 q 744 496 694 573 q 645 650 530 650 q 414 650 330 576 q 246 502 213 349 q 186 219 235 143 q 284 66 410 66 q 440 66 467 70 q 495 74 517 86 z"},"w":{"x_min":0,"x_max":722,"ha":722,"o":"m 216 523 l 229 111 l 418 523 l 517 523 l 533 113 l 727 523 l 814 523 l 552 0 l 460 0 l 440 405 l 251 0 l 160 0 l 120 523 z"},"-":{"x_min":0,"x_max":333,"ha":333,"o":"m 110 324 l 355 324 l 336 233 l 91 233 z"},"E":{"x_min":0,"x_max":667,"ha":667,"o":"m 238 717 l 761 717 l 742 629 l 313 629 l 268 412 l 664 412 l 646 329 l 250 329 l 198 85 l 634 85 l 616 0 l 85 0 z"},"s":{"x_min":0,"x_max":500,"ha":500,"o":"m 151 164 q 146 120 159 97 q 183 54 265 54 q 314 54 356 75 q 397 97 407 141 q 414 175 388 192 q 371 203 318 217 l 252 235 q 188 251 161 272 q 112 308 125 371 q 141 445 204 491 q 268 537 358 537 q 476 537 514 467 q 537 423 525 373 l 442 373 q 446 402 433 427 q 410 461 335 461 q 285 461 256 442 q 226 423 219 392 q 212 358 241 337 q 258 325 294 316 l 350 302 q 439 279 467 257 q 511 224 496 151 q 481 82 417 31 q 354 -20 245 -20 q 128 -20 91 33 q 54 86 67 164 z"},">":{"x_min":0,"x_max":584,"ha":584,"o":"m 630 214 l 11 -9 l 30 79 l 534 255 l 105 432 l 124 520 l 647 296 z"},"l":{"x_min":0,"x_max":222,"ha":222,"o":"m 219 717 l 307 717 l 155 0 l 67 0 z"},"8":{"x_min":0,"x_max":556,"ha":556,"o":"m 505 516 q 513 555 489 588 q 465 621 401 621 q 337 621 302 588 q 267 555 257 511 q 247 462 278 434 q 308 406 358 406 q 416 406 456 439 q 496 471 505 516 z m 459 191 q 474 259 440 294 q 406 330 341 330 q 278 330 230 294 q 183 258 169 194 q 158 140 186 100 q 214 60 290 60 q 351 60 398 93 q 445 126 459 191 z m 182 409 q 152 448 165 511 q 182 589 250 645 q 319 701 423 701 q 523 701 569 648 q 615 595 600 524 q 586 459 544 418 q 521 396 477 374 q 516 354 536 328 q 572 279 555 201 q 536 108 460 44 q 384 -20 271 -20 q 169 -20 110 35 q 51 91 74 196 q 87 258 127 303 q 167 349 231 373 q 198 388 182 409 z"},"\\":{"x_min":0,"x_max":278,"ha":278,"o":"m 195 717 l 321 0 l 245 0 l 119 717 z"},"e":{"x_min":0,"x_max":556,"ha":556,"o":"m 563 441 q 581 401 579 349 q 579 312 562 233 l 179 233 q 164 154 189 106 q 214 58 288 58 q 357 58 407 103 q 437 129 454 164 l 540 164 q 530 135 504 100 q 477 64 448 42 q 400 3 338 -11 q 304 -19 264 -19 q 167 -19 114 52 q 61 124 88 251 q 115 377 200 456 q 285 535 396 535 q 451 535 498 509 q 545 482 563 441 z m 486 303 q 493 360 481 395 q 458 458 374 458 q 313 458 263 414 q 213 371 196 303 z"},"b":{"x_min":0,"x_max":556,"ha":556,"o":"m 210 720 l 296 720 l 241 459 q 277 497 322 517 q 366 537 413 537 q 510 537 557 469 q 604 402 576 271 q 549 147 472 65 q 394 -17 288 -17 q 228 -17 193 12 q 172 29 153 67 l 139 0 l 58 0 z m 485 267 q 502 350 479 404 q 455 458 386 458 q 326 458 271 414 q 216 369 195 267 q 179 193 188 147 q 204 61 299 61 q 370 61 417 118 q 465 174 485 267 z"},"%":{"x_min":0,"x_max":889,"ha":889,"o":"m 887 170 q 873 100 812 50 q 752 0 682 0 q 611 0 572 50 q 532 100 547 170 q 562 240 622 290 q 683 340 753 340 q 824 340 863 290 q 902 240 887 170 z m 759 696 l 813 696 l 270 -19 l 215 -19 z m 411 508 q 420 549 396 579 q 373 608 331 608 q 290 608 254 579 q 218 550 209 508 q 200 466 224 437 q 247 407 289 407 q 331 407 366 437 q 402 466 411 508 z m 480 508 q 465 438 405 388 q 345 338 274 338 q 204 338 164 388 q 125 438 140 508 q 155 578 215 628 q 276 678 346 678 q 417 678 456 628 q 495 578 480 508 z m 818 170 q 827 211 804 241 q 780 271 739 271 q 697 271 661 241 q 625 211 616 170 q 607 128 631 99 q 654 69 696 69 q 738 69 773 99 q 809 128 818 170 z"},"m":{"x_min":0,"x_max":833,"ha":833,"o":"m 175 523 l 262 523 l 247 449 q 286 487 315 505 q 365 535 420 535 q 482 535 514 504 q 532 486 542 452 q 581 494 624 514 q 668 535 717 535 q 823 535 845 458 q 856 417 842 348 l 768 0 l 677 0 l 754 363 q 765 416 743 435 q 721 455 683 455 q 631 455 587 420 q 542 385 525 304 l 460 0 l 371 0 l 443 341 q 455 395 447 419 q 435 456 380 456 q 331 456 281 417 q 232 378 211 277 l 152 0 l 64 0 z"},"#":{"x_min":0,"x_max":556,"ha":556,"o":"m 73 274 l 187 274 l 268 442 l 155 442 l 182 499 l 295 499 l 400 717 l 473 717 l 367 499 l 475 499 l 582 717 l 653 717 l 548 499 l 661 499 l 634 442 l 521 442 l 438 274 l 552 274 l 525 217 l 413 217 l 307 0 l 235 0 l 340 217 l 231 217 l 127 0 l 54 0 l 159 217 l 46 217 z m 366 274 l 448 442 l 340 442 l 259 274 z"},",":{"x_min":0,"x_max":278,"ha":278,"o":"m 61 -102 q 96 -96 119 -55 q 130 -33 135 -12 q 136 -9 136 -6 q 136 -3 136 0 l 83 0 l 105 106 l 210 106 l 189 8 q 177 -50 144 -94 q 111 -138 51 -148 z"},"n":{"x_min":0,"x_max":556,"ha":556,"o":"m 175 523 l 259 523 l 243 449 q 290 495 336 515 q 381 535 432 535 q 543 535 566 457 q 579 415 562 335 l 491 0 l 401 0 l 471 330 q 481 377 474 407 q 460 456 399 456 q 368 456 346 449 q 308 438 273 406 q 246 380 234 353 q 221 325 210 274 l 152 0 l 64 0 z"},"h":{"x_min":0,"x_max":556,"ha":556,"o":"m 217 720 l 305 720 l 248 452 q 288 492 316 508 q 365 536 428 536 q 542 536 565 456 q 578 413 562 335 l 491 0 l 400 0 l 470 330 q 482 387 474 414 q 458 457 393 457 q 338 457 286 419 q 233 382 211 277 l 152 0 l 64 0 z"},"z":{"x_min":0,"x_max":500,"ha":500,"o":"m 40 69 l 430 444 l 143 444 l 159 523 l 564 523 l 549 451 l 162 79 l 479 79 l 463 0 l 25 0 z"},"B":{"x_min":0,"x_max":667,"ha":667,"o":"m 434 414 q 495 414 533 431 q 592 458 607 528 q 622 598 570 623 q 541 636 477 636 l 304 636 l 257 414 z m 396 83 q 485 83 534 135 q 565 167 575 214 q 592 292 528 320 q 494 335 433 335 l 240 335 l 187 83 z m 226 717 l 534 717 q 660 717 697 642 q 719 598 707 540 q 692 472 645 428 q 620 405 578 386 q 628 365 650 339 q 689 292 671 209 q 657 140 601 84 q 519 0 377 0 l 74 0 z"},"K":{"x_min":0,"x_max":667,"ha":667,"o":"m 229 717 l 323 717 l 249 368 l 673 717 l 807 717 l 447 428 l 663 0 l 537 0 l 362 360 l 224 250 l 171 0 l 76 0 z"},"R":{"x_min":0,"x_max":722,"ha":722,"o":"m 492 389 q 561 389 606 416 q 652 443 667 515 q 683 591 633 619 q 606 634 557 634 l 319 634 l 268 389 z m 240 717 l 572 717 q 654 717 702 693 q 793 647 768 524 q 754 459 719 418 q 683 377 630 353 q 668 335 684 308 q 699 280 688 217 l 671 121 q 664 80 665 60 q 667 26 687 16 l 684 0 l 564 0 q 562 9 562 24 q 562 39 569 81 l 588 200 q 600 271 556 294 q 531 308 471 308 l 250 308 l 185 0 l 88 0 z"},"T":{"x_min":0,"x_max":611,"ha":611,"o":"m 750 717 l 732 632 l 491 632 l 356 0 l 258 0 l 392 632 l 150 632 l 168 717 z"},"P":{"x_min":0,"x_max":667,"ha":667,"o":"m 238 717 l 561 717 q 656 717 703 663 q 750 609 729 512 q 712 428 646 365 q 581 303 472 303 l 247 303 l 183 0 l 85 0 z m 596 619 q 566 634 510 634 l 317 634 l 264 385 l 458 385 q 523 385 570 413 q 616 441 631 511 q 648 590 596 619 z"},"|":{"x_min":0,"x_max":260,"ha":260,"o":"m 154 0 l 70 0 l 225 728 l 308 728 z"},"t":{"x_min":0,"x_max":278,"ha":278,"o":"m 224 669 l 313 669 l 282 523 l 365 523 l 350 451 l 267 451 l 194 110 q 188 83 205 73 q 214 68 238 68 q 244 68 251 68 q 259 68 269 69 l 254 0 q 238 -4 221 -6 q 205 -8 186 -8 q 124 -8 109 23 q 93 55 104 105 l 178 451 l 107 451 l 122 523 l 193 523 z"},"M":{"x_min":0,"x_max":833,"ha":833,"o":"m 226 717 l 365 717 l 442 111 l 776 717 l 914 717 l 761 0 l 669 0 l 759 423 q 763 445 775 496 q 787 547 799 605 l 466 0 l 370 0 l 292 605 l 288 583 q 282 557 272 503 q 262 449 256 423 l 167 0 l 74 0 z"},"g":{"x_min":0,"x_max":556,"ha":556,"o":"m 463 502 q 484 485 503 452 l 517 518 l 598 518 l 497 42 q 476 -57 435 -115 q 357 -221 205 -221 q 121 -221 71 -183 q 21 -146 32 -65 l 121 -65 q 120 -100 135 -119 q 159 -148 223 -148 q 324 -148 370 -77 q 397 -35 419 73 q 384 33 343 13 q 302 -6 241 -6 q 156 -6 105 54 q 54 114 83 253 q 111 385 191 458 q 271 532 362 532 q 423 532 463 502 z m 361 455 q 269 455 216 368 q 188 321 172 246 q 153 158 179 112 q 206 65 266 65 q 361 65 417 151 q 449 199 463 264 q 484 361 454 408 q 423 455 361 455 z"},"j":{"x_min":0,"x_max":222,"ha":222,"o":"m 283 616 l 195 616 l 217 717 l 305 717 z m -46 -132 q 13 -130 26 -122 q 40 -113 50 -68 l 175 521 l 263 521 l 136 -78 q 124 -135 99 -163 q 58 -211 -27 -211 q -34 -211 -41 -210 q -48 -210 -62 -208 z"},"i":{"x_min":0,"x_max":222,"ha":222,"o":"m 175 521 l 264 521 l 154 0 l 64 0 z m 217 717 l 306 717 l 285 618 l 195 618 z"},"y":{"x_min":0,"x_max":500,"ha":500,"o":"m 502 523 l 599 523 q 570 473 468 293 q 392 159 341 74 q 222 -126 182 -170 q 141 -214 65 -214 q 46 -214 37 -213 q 27 -211 13 -208 l 30 -127 q 52 -134 62 -135 q 72 -137 80 -137 q 104 -137 117 -129 q 130 -121 141 -109 q 144 -105 167 -69 q 189 -33 200 -15 l 121 523 l 221 523 l 271 97 z"},"@":{"x_min":0,"x_max":1015,"ha":1015,"o":"m 643 515 q 587 515 532 449 q 478 383 464 318 q 454 271 469 245 q 485 220 517 220 q 583 220 636 297 q 689 374 702 436 q 708 466 694 490 q 679 515 643 515 z m 221 106 q 154 208 183 342 q 216 501 347 613 q 493 737 693 737 q 867 737 948 649 q 1024 566 996 434 q 972 322 889 243 q 805 165 723 165 q 674 165 656 188 q 638 211 646 244 q 646 249 649 255 q 651 261 654 267 q 616 211 571 188 q 527 165 485 165 q 425 165 397 208 q 369 251 383 320 q 404 417 483 491 q 563 565 636 565 q 686 565 712 537 q 739 508 732 467 l 774 549 l 846 549 l 735 335 q 723 311 716 295 q 709 280 707 269 q 702 247 713 237 q 725 227 742 227 q 797 227 854 285 q 911 343 931 437 q 955 550 889 615 q 824 679 690 679 q 504 679 383 571 q 280 479 250 339 q 224 217 287 134 q 359 36 533 36 q 614 36 689 61 q 764 87 832 130 l 854 86 q 802 47 708 13 q 613 -21 508 -21 q 304 -21 221 106 z"},".":{"x_min":0,"x_max":278,"ha":278,"o":"m 108 106 l 210 106 l 188 0 l 85 0 z"},"p":{"x_min":0,"x_max":556,"ha":556,"o":"m 484 265 q 498 327 489 372 q 473 458 382 458 q 291 458 238 367 q 209 318 193 243 q 181 183 190 140 q 207 59 297 59 q 359 59 411 111 q 462 162 484 265 z m 168 521 l 253 521 l 239 451 q 272 487 308 506 q 359 536 419 536 q 508 536 555 468 q 603 399 576 273 q 540 102 435 29 q 368 -18 293 -18 q 234 -18 199 8 q 179 23 158 59 l 101 -208 l 13 -208 z"},"X":{"x_min":0,"x_max":667,"ha":667,"o":"m 138 0 l 21 0 l 355 368 l 189 717 l 311 717 l 435 443 l 675 717 l 791 717 l 476 368 l 650 0 l 530 0 l 399 295 z"},"*":{"x_min":0,"x_max":389,"ha":389,"o":"m 372 717 l 349 608 l 463 646 l 471 591 l 357 557 l 404 465 l 348 430 l 304 525 l 220 430 l 177 465 l 264 557 l 164 591 l 194 646 l 292 607 l 315 717 z"},"Y":{"x_min":0,"x_max":667,"ha":667,"o":"m 173 717 l 286 717 l 419 373 l 698 717 l 812 717 l 450 289 l 389 0 l 292 0 l 353 289 z"},"c":{"x_min":0,"x_max":500,"ha":500,"o":"m 550 347 l 465 347 q 467 396 446 427 q 425 459 364 459 q 280 459 226 377 q 191 324 175 246 q 158 167 180 114 q 202 60 273 60 q 328 60 367 94 q 406 127 430 185 l 516 185 q 479 81 410 33 q 341 -15 250 -15 q 147 -15 102 60 q 57 135 81 247 q 110 385 194 461 q 277 538 380 538 q 469 538 515 495 q 561 452 550 347 z"},"!":{"x_min":0,"x_max":278,"ha":278,"o":"m 268 717 l 367 717 l 317 481 l 227 171 l 177 171 l 218 481 z m 137 102 l 234 102 l 213 0 l 116 0 z"},"/":{"x_min":0,"x_max":278,"ha":278,"o":"m 380 717 l 454 717 l 74 0 l 0 0 z"},"[":{"x_min":0,"x_max":278,"ha":278,"o":"m 216 722 l 403 722 l 388 650 l 284 650 l 119 -125 l 223 -125 l 208 -197 l 21 -197 z"},"6":{"x_min":0,"x_max":556,"ha":556,"o":"m 611 516 l 524 516 q 525 558 513 581 q 491 625 427 625 q 353 625 295 557 q 237 489 205 362 q 245 406 295 428 q 341 448 393 448 q 481 448 535 392 q 588 335 564 224 q 544 129 467 55 q 389 -18 274 -18 q 176 -18 121 56 q 65 131 103 307 q 130 438 181 528 q 279 702 441 702 q 559 702 592 641 q 625 581 611 516 z m 470 217 q 481 271 461 319 q 441 368 360 368 q 303 368 252 330 q 202 292 186 217 q 171 150 201 105 q 230 60 299 60 q 368 60 412 107 q 457 153 470 217 z"},"r":{"x_min":0,"x_max":333,"ha":333,"o":"m 178 523 l 261 523 l 242 433 q 258 459 306 497 q 354 535 406 535 q 409 535 415 534 q 420 534 434 532 l 415 439 q 407 441 400 441 q 394 442 386 442 q 320 442 275 399 q 230 356 218 301 l 155 0 l 67 0 z"},"2":{"x_min":0,"x_max":556,"ha":556,"o":"m 254 279 l 359 333 q 430 370 461 396 q 510 436 521 488 q 534 549 505 585 q 476 621 415 621 q 325 621 275 553 q 249 516 233 451 l 144 451 q 165 542 209 600 q 288 702 433 702 q 553 702 594 637 q 636 572 619 492 q 601 408 529 349 q 488 314 389 265 l 314 228 q 261 201 229 177 q 170 135 147 83 l 529 83 l 511 0 l 31 0 q 55 90 102 157 q 148 224 254 279 z"},"{":{"x_min":0,"x_max":334,"ha":334,"o":"m 190 -2 q 174 -78 206 -110 q 237 -142 281 -147 l 269 -204 q 184 -195 136 -153 q 88 -111 108 -14 l 130 86 q 141 140 131 170 q 113 227 29 236 l 41 292 q 129 302 170 355 q 193 385 205 441 l 222 521 q 242 612 293 666 q 344 720 467 730 l 456 674 q 375 667 334 605 q 312 571 299 510 l 288 456 q 272 382 246 343 q 198 272 102 264 q 194 255 211 182 q 221 141 206 71 z"},"9":{"x_min":0,"x_max":556,"ha":556,"o":"m 168 169 q 157 96 203 68 q 227 54 261 54 q 324 54 379 106 q 435 159 488 319 q 448 273 401 254 q 354 235 304 235 q 203 235 158 298 q 112 361 133 460 q 153 556 227 628 q 300 700 414 700 q 566 700 595 562 q 611 487 587 373 q 560 245 500 146 q 401 -20 249 -20 q 146 -20 104 34 q 62 88 80 169 z m 504 467 q 521 544 490 582 q 458 620 398 620 q 334 620 287 577 q 240 534 225 461 q 210 393 235 353 q 260 312 333 312 q 385 312 435 347 q 486 381 504 467 z"}," ":{"x_min":0,"x_max":278,"ha":278,"o":""},"I":{"x_min":0,"x_max":278,"ha":278,"o":"m 250 717 l 349 717 l 196 0 l 98 0 z"},"H":{"x_min":0,"x_max":722,"ha":722,"o":"m 231 717 l 329 717 l 266 421 l 639 421 l 702 717 l 800 717 l 648 0 l 550 0 l 621 335 l 248 335 l 177 0 l 79 0 z"},"4":{"x_min":0,"x_max":556,"ha":556,"o":"m 383 248 l 450 564 l 159 248 z m 332 0 l 368 171 l 62 171 l 80 257 l 495 701 l 569 701 l 472 248 l 575 248 l 559 171 l 456 171 l 420 0 z"},"~":{"x_min":0,"x_max":584,"ha":584,"o":"m 262 335 q 289 332 312 321 l 412 279 q 435 269 449 264 q 474 257 493 257 q 529 257 560 285 q 591 313 608 354 l 665 354 q 638 285 590 228 q 542 170 469 170 q 447 170 419 179 q 402 185 371 198 l 279 236 q 262 243 243 247 q 224 251 211 251 q 170 251 140 219 q 123 201 99 156 l 42 156 q 59 197 74 225 q 90 254 123 290 q 148 314 174 326 q 201 338 232 338 q 247 338 262 335 z"},"D":{"x_min":0,"x_max":722,"ha":722,"o":"m 369 83 q 418 83 452 93 q 513 112 561 167 q 599 210 625 278 q 642 318 649 353 q 677 486 640 560 q 603 634 485 634 l 312 634 l 196 83 z m 233 717 l 523 717 q 671 717 730 612 q 783 518 751 370 q 728 255 665 163 q 555 0 370 0 l 81 0 z"},"^":{"x_min":0,"x_max":469,"ha":469,"o":"m 458 717 l 540 296 l 460 296 l 399 619 l 201 296 l 121 296 l 382 717 z"},"0":{"x_min":0,"x_max":556,"ha":556,"o":"m 591 587 q 620 501 588 351 q 558 208 495 115 q 405 -19 266 -19 q 140 -19 102 90 q 70 182 103 335 q 127 455 177 540 q 268 699 419 699 q 555 699 591 587 z m 493 347 q 518 466 505 543 q 492 620 407 620 q 330 620 278 547 q 227 474 197 332 q 174 225 183 160 q 197 61 282 61 q 351 61 404 122 q 458 182 493 347 z"},"F":{"x_min":0,"x_max":611,"ha":611,"o":"m 238 717 l 735 717 l 716 629 l 316 629 l 270 412 l 622 412 l 604 326 l 251 326 l 183 0 l 85 0 z"},"`":{"x_min":0,"x_max":333,"ha":333,"o":"m 399 592 l 333 592 l 213 733 l 322 733 z"},"k":{"x_min":0,"x_max":500,"ha":500,"o":"m 215 717 l 299 717 l 210 301 l 483 523 l 596 523 l 354 327 l 496 0 l 384 0 l 276 264 l 188 196 l 147 0 l 62 0 z"},"u":{"x_min":0,"x_max":556,"ha":556,"o":"m 263 523 l 189 176 q 181 136 188 110 q 202 63 266 63 q 357 63 408 146 q 436 189 452 266 l 506 523 l 594 523 l 483 0 l 400 0 l 417 77 q 394 47 364 27 q 305 -14 233 -14 q 122 -14 97 61 q 83 101 98 167 l 173 523 z"},"]":{"x_min":0,"x_max":278,"ha":278,"o":"m -3 -125 l 100 -125 l 265 650 l 161 650 l 176 722 l 364 722 l 168 -197 l -19 -197 z"},"U":{"x_min":0,"x_max":722,"ha":722,"o":"m 334 717 l 240 274 q 223 196 241 144 q 268 66 371 66 q 495 66 557 150 q 591 196 607 274 l 702 717 l 800 717 l 714 314 q 687 182 636 111 q 542 -19 361 -19 q 179 -19 142 111 q 122 182 149 314 l 235 717 z"},"o":{"x_min":0,"x_max":556,"ha":556,"o":"m 481 270 q 497 343 483 389 q 461 461 371 461 q 290 461 240 400 q 191 338 172 251 q 155 168 179 112 q 204 57 284 57 q 371 57 418 123 q 464 189 481 270 z m 574 272 q 547 146 468 63 q 389 -19 259 -19 q 151 -19 104 54 q 56 127 82 250 q 110 382 193 460 q 277 538 390 538 q 491 538 546 471 q 602 403 574 272 z"},"N":{"x_min":0,"x_max":722,"ha":722,"o":"m 229 717 l 343 717 l 582 136 l 706 717 l 798 717 l 646 0 l 537 0 l 292 581 l 169 0 l 76 0 z"},"+":{"x_min":0,"x_max":584,"ha":584,"o":"m 90 214 l 107 296 l 320 296 l 366 510 l 450 510 l 404 296 l 617 296 l 600 214 l 387 214 l 341 0 l 258 0 l 303 214 z"},"G":{"x_min":0,"x_max":778,"ha":778,"o":"m 709 697 q 804 641 798 500 l 702 500 q 701 579 653 615 q 606 650 522 650 q 422 650 338 576 q 254 501 223 353 q 195 225 235 145 q 274 64 401 64 q 498 64 574 121 q 649 177 677 303 l 453 303 l 470 384 l 785 384 l 704 0 l 641 0 l 637 92 q 576 38 534 17 q 462 -19 363 -19 q 236 -19 162 63 q 83 167 122 348 q 160 528 281 634 q 395 736 542 736 q 644 736 709 697 z"},"q":{"x_min":0,"x_max":556,"ha":556,"o":"m 170 141 q 186 59 273 59 q 365 59 418 145 q 447 192 462 266 q 477 334 466 379 q 446 457 356 457 q 299 457 248 407 q 197 358 175 254 q 161 187 170 141 z m 467 502 q 487 484 502 450 l 518 523 l 602 523 l 446 -208 l 358 -208 l 415 60 q 385 25 342 4 q 299 -17 241 -17 q 157 -17 105 49 q 53 114 82 248 q 108 374 187 454 q 266 535 364 535 q 429 535 467 502 z"},"d":{"x_min":0,"x_max":556,"ha":556,"o":"m 282 58 q 343 58 394 111 q 444 163 465 261 q 486 360 456 408 q 425 456 366 456 q 299 456 247 405 q 195 354 174 255 q 156 171 180 115 q 204 58 282 58 z m 460 507 q 481 492 503 456 l 559 720 l 644 720 l 491 0 l 412 0 l 427 73 q 386 24 339 3 q 292 -19 238 -19 q 151 -19 103 55 q 54 128 81 250 q 104 365 181 448 q 257 532 365 532 q 425 532 460 507 z"},"1":{"x_min":0,"x_max":556,"ha":556,"o":"m 201 495 l 215 562 q 312 572 354 594 q 396 615 433 696 l 502 696 l 354 0 l 260 0 l 365 495 z"},"5":{"x_min":0,"x_max":556,"ha":556,"o":"m 161 178 q 154 103 209 74 q 237 60 278 60 q 356 60 404 109 q 453 159 465 220 q 481 293 445 333 q 409 373 346 373 q 301 373 265 355 q 229 338 199 307 l 124 311 l 257 688 l 620 688 l 602 603 l 305 603 l 233 408 q 262 427 286 436 q 328 452 379 452 q 476 452 529 390 q 583 328 563 233 q 542 134 465 58 q 387 -18 253 -18 q 167 -18 112 31 q 57 79 70 178 z"}}}
